<svg width="48" height="48" viewBox="0 0 48 48" xmlns="http://www.w3.org/2000/svg"><rect x="0" y="0" width="48" height="48" rx="8" fill="none"/><svg xmlns="http://www.w3.org/2000/svg" viewBox="0 0 48 48" fill="#000000" x="0" y="0" width="48" height="48"><path fill="none" stroke="#000000" stroke-linecap="round" stroke-linejoin="round" d="M40.5 5.5h-33a2 2 0 0 0-2 2v33a2 2 0 0 0 2 2h33a2 2 0 0 0 2-2v-33a2 2 0 0 0-2-2m-7 13.362v10.276"/><path fill="none" stroke="#000000" stroke-linecap="round" stroke-linejoin="round" d="M23.972 29.138V18.862h3.364c1.902 0 3.444 1.545 3.444 3.451s-1.542 3.451-3.444 3.451h-3.364m-3.792-.03h-4.553M14.5 29.138l3.404-10.276l3.404 10.276"/></svg></svg>